<?xml version="1.0" encoding="UTF-8"?>
<svg version="1.1" xmlns="http://www.w3.org/2000/svg" width="76" height="72">
<path d="M0 0 C0.66861557 -0.00525696 1.33723114 -0.01051392 2.02610779 -0.01593018 C4.23574195 -0.02913166 6.44465542 -0.02039222 8.65429688 -0.01025391 C10.18982074 -0.01227462 11.72534368 -0.01518603 13.26086426 -0.01895142 C16.47885272 -0.02337494 19.69659136 -0.016943 22.91455078 -0.00292969 C27.04078303 0.01416248 31.16642991 0.00432141 35.29264069 -0.01364708 C38.46336279 -0.02448429 41.63394597 -0.02103892 44.80467224 -0.0132637 C46.3261268 -0.01126151 47.84759395 -0.01372167 49.36903381 -0.02070236 C51.49506066 -0.02831613 53.62013771 -0.01671523 55.74609375 0 C57.56119446 0.00358017 57.56119446 0.00358017 59.41296387 0.00723267 C62.37304688 0.38818359 62.37304688 0.38818359 64.26452637 1.78915405 C66.38007521 4.84081171 65.65885129 7.78704797 65.37304688 11.38818359 C64.71304688 12.04818359 64.05304688 12.70818359 63.37304688 13.38818359 C62.38304688 13.38818359 61.39304687 13.38818359 60.37304688 13.38818359 C60.28023437 14.71849609 60.28023437 14.71849609 60.18554688 16.07568359 C59.11238856 20.45086749 58.02831495 21.71603732 54.37304688 24.38818359 C50.4077235 25.14100244 46.49314577 25.08870219 42.46679688 25.05224609 C41.3093396 25.05702972 40.15188232 25.06181335 38.95935059 25.06674194 C36.51504149 25.07014059 34.07068693 25.06094084 31.62646484 25.04003906 C27.88601279 25.01327636 24.14856188 25.03979164 20.40820312 25.07177734 C18.03189442 25.06847324 15.65558758 25.06206701 13.27929688 25.05224609 C12.16147827 25.06236725 11.04365967 25.0724884 9.89196777 25.08291626 C2.16387987 24.96631395 2.16387987 24.96631395 -1.8203125 22.05371094 C-3.83419008 19.08242507 -4.37879921 16.94505634 -4.62695312 13.38818359 C-5.26632813 13.24380859 -5.90570313 13.09943359 -6.56445312 12.95068359 C-8.62695312 12.38818359 -8.62695312 12.38818359 -9.62695312 11.38818359 C-10.09900358 4.0714015 -10.09900358 4.0714015 -8.52062988 1.78695679 C-5.71225359 -0.28746349 -3.46340525 0.00683134 0 0 Z M-5.62695312 4.38818359 C-5.62695312 6.03818359 -5.62695312 7.68818359 -5.62695312 9.38818359 C16.48304687 9.38818359 38.59304687 9.38818359 61.37304688 9.38818359 C61.37304688 7.73818359 61.37304688 6.08818359 61.37304688 4.38818359 C39.26304688 4.38818359 17.15304688 4.38818359 -5.62695312 4.38818359 Z M-0.62695312 13.38818359 C-0.1354283 18.24950854 -0.1354283 18.24950854 2.37304688 20.38818359 C4.61501597 20.70111121 4.61501597 20.70111121 7.23413086 20.6628418 C8.24535507 20.67237381 9.25657928 20.68190582 10.29844666 20.69172668 C11.94219017 20.69035957 11.94219017 20.69035957 13.61914062 20.68896484 C14.741194 20.69324997 15.86324738 20.6975351 17.01930237 20.70195007 C19.39575525 20.70770125 21.77222574 20.70818787 24.14868164 20.70385742 C27.79213401 20.70069955 31.43477325 20.72414053 35.078125 20.74951172 C37.38346251 20.75178476 39.68880222 20.75248818 41.99414062 20.75146484 C43.0879454 20.76067459 44.18175018 20.76988434 45.30870056 20.77937317 C46.32307693 20.77314438 47.33745331 20.76691559 48.38256836 20.76049805 C49.72254128 20.76144218 49.72254128 20.76144218 51.08958435 20.7624054 C53.42174343 20.55022653 53.42174343 20.55022653 55.18495178 19.11491394 C56.7509418 17.18829749 56.7509418 17.18829749 56.37304688 13.38818359 C37.56304687 13.38818359 18.75304687 13.38818359 -0.62695312 13.38818359 Z " fill="#82B2D2" transform="translate(10.626953125,46.61181640625)"/>
<path d="M0 0 C0.63164063 0.4125 1.26328125 0.825 1.9140625 1.25 C2.60757813 1.6625 3.30109375 2.075 4.015625 2.5 C10.10236523 6.51223326 14.07272926 12.21629612 16.57421875 19.0546875 C17.09440749 22.41498715 16.9140625 25.849675 16.9140625 29.25 C-4.5359375 29.25 -25.9859375 29.25 -48.0859375 29.25 C-48.0859375 20.17281733 -46.17260595 12.46815844 -39.7890625 5.74609375 C-29.4771064 -3.31234475 -12.49857689 -6.94901572 0 0 Z M-37.0859375 9.25 C-41.65717547 14.74148719 -43.03880341 17.92006137 -44.0859375 25.25 C-25.2759375 25.25 -6.4659375 25.25 12.9140625 25.25 C11.64150655 16.34210834 8.77277281 11.07944709 1.72265625 5.5 C-10.18328624 -2.72872915 -26.98395557 -1.12196808 -37.0859375 9.25 Z " fill="#82B2D2" transform="translate(54.0859375,3.75)"/>
<path d="M0 0 C0.598125 0.309375 1.19625 0.61875 1.8125 0.9375 C4.08956772 2.10209704 4.08956772 2.10209704 7 3 C9.19038423 1.62831762 9.19038423 1.62831762 11 0 C11.5775 0.33 12.155 0.66 12.75 1 C15.19883862 2.27075898 15.19883862 2.27075898 19 2 C21.20067421 1.06716704 21.20067421 1.06716704 23 0 C24.32 0.99 25.64 1.98 27 3 C27.5775 2.67 28.155 2.34 28.75 2 C31 1 31 1 35 1 C37.25 2 37.25 2 39 3 C40.32 2.01 41.64 1.02 43 0 C43.598125 0.309375 44.19625 0.61875 44.8125 0.9375 C47.08956772 2.10209704 47.08956772 2.10209704 50 3 C52.6569191 2.12085312 52.6569191 2.12085312 55 1 C55.495 2.485 55.495 2.485 56 4 C54.02 5.65 52.04 7.3 50 9 C49.4225 8.67 48.845 8.34 48.25 8 C45.80116138 6.72924102 45.80116138 6.72924102 42 7 C41.360625 7.391875 40.72125 7.78375 40.0625 8.1875 C39.0415625 8.5896875 39.0415625 8.5896875 38 9 C35.25 7.625 35.25 7.625 33 6 C32.443125 6.53625 31.88625 7.0725 31.3125 7.625 C30.549375 8.07875 29.78625 8.5325 29 9 C26.4375 8.1875 26.4375 8.1875 24 7 C21.00465847 6.7763932 21.00465847 6.7763932 18.625 8.1875 C16 9 16 9 13.1875 7.625 C12.465625 7.08875 11.74375 6.5525 11 6 C9.35 6.99 7.7 7.98 6 9 C4.35 8.01 2.7 7.02 1 6 C0.443125 6.53625 -0.11375 7.0725 -0.6875 7.625 C-3 9 -3 9 -5.5625 8.4375 C-8.14987859 6.91161006 -9.4056714 5.51736095 -11 3 C-10.01 2.34 -9.02 1.68 -8 1 C-5.3125 1.875 -5.3125 1.875 -3 3 C-2.01 2.01 -1.02 1.02 0 0 Z " fill="#82B2D2" transform="translate(16,35)"/>
<path d="M0 0 C1.98 0.495 1.98 0.495 4 1 C3.67 2.32 3.34 3.64 3 5 C1.68 4.67 0.36 4.34 -1 4 C-0.67 2.68 -0.34 1.36 0 0 Z " fill="#82B1D1" transform="translate(37,14)"/>
<path d="M0 0 C1.32 0 2.64 0 4 0 C3.67 1.65 3.34 3.3 3 5 C1.68 4.34 0.36 3.68 -1 3 C-0.67 2.01 -0.34 1.02 0 0 Z " fill="#82B2D1" transform="translate(29,9)"/>
<path d="M0 0 C1.98 0.495 1.98 0.495 4 1 C3.34 2.32 2.68 3.64 2 5 C1.01 4.67 0.02 4.34 -1 4 C-0.67 2.68 -0.34 1.36 0 0 Z " fill="#82B2D1" transform="translate(45,9)"/>
</svg>
