<?xml version="1.0" encoding="UTF-8"?>
<svg version="1.1" xmlns="http://www.w3.org/2000/svg" width="77" height="72">
<path d="M0 0 C3.63303084 1.69586126 5.94549046 3.73800488 8.75 6.625 C9.54921875 7.44226563 10.3484375 8.25953125 11.171875 9.1015625 C11.77515625 9.72804688 12.3784375 10.35453125 13 11 C13.33 7.37 13.66 3.74 14 0 C18.95 0 23.9 0 29 0 C28.96777344 1.84464844 28.93554688 3.68929688 28.90234375 5.58984375 C28.91172777 8.03907256 28.92357686 10.48829279 28.9375 12.9375 C28.90978516 14.14986328 28.88207031 15.36222656 28.85351562 16.61132812 C28.9473129 23.53356684 29.5626942 27.3751942 34.56640625 32.37890625 C36.01460743 33.62137215 37.48327297 34.84217994 39 36 C38.34 37.32 37.68 38.64 37 40 C34.69 38.02 32.38 36.04 30 34 C29.67 45.55 29.34 57.1 29 69 C30.65 69 32.3 69 34 69 C34 69.99 34 70.98 34 72 C12.55 72 -8.9 72 -31 72 C-31 71.01 -31 70.02 -31 69 C-29.68 69 -28.36 69 -27 69 C-27.495 51.675 -27.495 51.675 -28 34 C-30.31 35.98 -32.62 37.96 -35 40 C-35.66 38.68 -36.32 37.36 -37 36 C-36.00363813 34.97561545 -35.00260713 33.95577287 -34 32.9375 C-33.443125 32.36902344 -32.88625 31.80054687 -32.3125 31.21484375 C-30.40797784 29.39074904 -28.47123727 27.6813088 -26.46875 25.96875 C-20.87775839 21.10839934 -15.71236345 15.81991486 -10.5 10.5625 C-9.47679861 9.5342702 -8.45336267 8.50627374 -7.4296875 7.47851562 C-4.95042001 4.98835662 -2.47432462 2.49507167 0 0 Z M18 3 C17.80971002 5.20494744 17.67461675 7.41469837 17.5625 9.625 C17.48128906 10.85476562 17.40007813 12.08453125 17.31640625 13.3515625 C17.81326337 18.10769397 17.81326337 18.10769397 25 23 C25 16.4 25 9.8 25 3 C22.69 3 20.38 3 18 3 Z M-14.87133789 16.89086914 C-22.84993337 24.99313484 -24.53250008 32.57838312 -24.66333008 43.77148438 C-24.35487041 52.19360038 -23.63373685 60.59609835 -23 69 C-7.16 69 8.68 69 25 69 C28.5026073 43.49851597 28.5026073 43.49851597 19.94921875 20.15625 C14.73844383 14.38315103 8.59575275 9.1201074 2 5 C-3.80522946 5 -10.73225598 13.02898554 -14.87133789 16.89086914 Z " fill="#82B2D2" transform="translate(38,0)"/>
<path d="M0 0 C5.61 0 11.22 0 17 0 C17 7.92 17 15.84 17 24 C11.39 24 5.78 24 0 24 C0 16.08 0 8.16 0 0 Z M3 4 C3 9.61 3 15.22 3 21 C6.3 21 9.6 21 13 21 C13 15.39 13 9.78 13 4 C9.7 4 6.4 4 3 4 Z " fill="#82B2D3" transform="translate(31,41)"/>
<path d="M0 0 C3.8425303 0.72047443 5.45767292 1.57152696 8 4.5625 C8.66017005 7.36391726 8.60984064 9.75493175 8 12.5625 C6.4375 15.0625 6.4375 15.0625 4 16.5625 C0.5625 17.125 0.5625 17.125 -3 16.5625 C-6.38121991 14.11651113 -7.76936783 12.66953441 -8.625 8.5625 C-7.58351809 3.56338683 -5.03644185 0.94433285 0 0 Z M-4 5.5625 C-4.16666667 8.5625 -4.16666667 8.5625 -4 11.5625 C-2.87465895 12.91868499 -2.87465895 12.91868499 0.0625 12.625 C1.031875 12.604375 2.00125 12.58375 3 12.5625 C4.19838209 10.23395537 4.19838209 10.23395537 5 7.5625 C4.34 6.5725 3.68 5.5825 3 4.5625 C-0.7978531 4.00046817 -0.7978531 4.00046817 -4 5.5625 Z " fill="#82B2D2" transform="translate(39,18.4375)"/>
<path d="M0 0 C1.32 0 2.64 0 4 0 C4 1.65 4 3.3 4 5 C2.68 5 1.36 5 0 5 C0 3.35 0 1.7 0 0 Z " fill="#81B1D1" transform="translate(56,47)"/>
<path d="M0 0 C1.32 0 2.64 0 4 0 C4 1.65 4 3.3 4 5 C2.68 5 1.36 5 0 5 C0 3.35 0 1.7 0 0 Z " fill="#81B1D1" transform="translate(50,47)"/>
<path d="M0 0 C1.32 0 2.64 0 4 0 C4 1.65 4 3.3 4 5 C2.68 5 1.36 5 0 5 C0 3.35 0 1.7 0 0 Z " fill="#81B1D1" transform="translate(24,47)"/>
<path d="M0 0 C1.32 0 2.64 0 4 0 C4 1.65 4 3.3 4 5 C2.68 5 1.36 5 0 5 C0 3.35 0 1.7 0 0 Z " fill="#81B1D1" transform="translate(18,47)"/>
<path d="M0 0 C1.32 0 2.64 0 4 0 C4 1.65 4 3.3 4 5 C2.68 5 1.36 5 0 5 C0 3.35 0 1.7 0 0 Z " fill="#81B1D1" transform="translate(56,41)"/>
<path d="M0 0 C1.32 0 2.64 0 4 0 C4 1.65 4 3.3 4 5 C2.68 5 1.36 5 0 5 C0 3.35 0 1.7 0 0 Z " fill="#81B1D1" transform="translate(50,41)"/>
<path d="M0 0 C1.32 0 2.64 0 4 0 C4 1.65 4 3.3 4 5 C2.68 5 1.36 5 0 5 C0 3.35 0 1.7 0 0 Z " fill="#81B1D1" transform="translate(24,41)"/>
<path d="M0 0 C1.32 0 2.64 0 4 0 C4 1.65 4 3.3 4 5 C2.68 5 1.36 5 0 5 C0 3.35 0 1.7 0 0 Z " fill="#81B1D1" transform="translate(18,41)"/>
</svg>
