<?xml version="1.0" encoding="UTF-8"?>
<svg version="1.1" xmlns="http://www.w3.org/2000/svg" width="76" height="76">
<path d="M0 0 C3.5725139 0.79151506 4.85368641 2.51228147 6.95703125 5.43359375 C8.48087837 8.70611789 9.77223618 12.0248258 10.95703125 15.43359375 C11.32054687 14.66273437 11.6840625 13.891875 12.05859375 13.09765625 C16.16753401 4.90084722 16.16753401 4.90084722 20.01953125 2.62109375 C23.39204893 2.40582666 25.05529365 2.70823626 27.95703125 4.43359375 C29.83203125 6.24609375 29.83203125 6.24609375 30.95703125 8.43359375 C30.95703125 12.06803579 30.0620816 13.3143474 27.64453125 16.05859375 C25.47289486 17.97771428 23.28494392 19.71619976 20.95703125 21.43359375 C21.58270996 21.45341309 22.20838867 21.47323242 22.85302734 21.49365234 C25.67979644 21.58873601 28.5058094 21.69848121 31.33203125 21.80859375 C32.316875 21.83953125 33.30171875 21.87046875 34.31640625 21.90234375 C35.72792969 21.96035156 35.72792969 21.96035156 37.16796875 22.01953125 C38.03728027 22.05095215 38.9065918 22.08237305 39.80224609 22.11474609 C41.95703125 22.43359375 41.95703125 22.43359375 43.95703125 24.43359375 C44.1875 27.62109375 44.1875 27.62109375 44.14453125 31.43359375 C44.13808594 32.69171875 44.13164063 33.94984375 44.125 35.24609375 C43.95703125 38.43359375 43.95703125 38.43359375 42.95703125 40.43359375 C42.29703125 40.43359375 41.63703125 40.43359375 40.95703125 40.43359375 C40.95703125 52.31359375 40.95703125 64.19359375 40.95703125 76.43359375 C21.48703125 76.43359375 2.01703125 76.43359375 -18.04296875 76.43359375 C-18.04296875 64.55359375 -18.04296875 52.67359375 -18.04296875 40.43359375 C-19.03296875 40.10359375 -20.02296875 39.77359375 -21.04296875 39.43359375 C-21.09680723 36.97496974 -21.13655913 34.51751825 -21.16796875 32.05859375 C-21.18472656 31.35992188 -21.20148437 30.66125 -21.21875 29.94140625 C-21.23641142 28.10461889 -21.14600136 26.26757412 -21.04296875 24.43359375 C-18.64610225 22.03672725 -17.97268561 22.15078242 -14.69140625 22.01953125 C-13.41523438 21.96152344 -13.41523438 21.96152344 -12.11328125 21.90234375 C-10.77910156 21.8559375 -10.77910156 21.8559375 -9.41796875 21.80859375 C-8.52078125 21.76992188 -7.62359375 21.73125 -6.69921875 21.69140625 C-4.48067605 21.59700018 -2.26214472 21.51142627 -0.04296875 21.43359375 C-0.58566406 21.046875 -1.12835937 20.66015625 -1.6875 20.26171875 C-2.40292969 19.7409375 -3.11835938 19.22015625 -3.85546875 18.68359375 C-4.56316406 18.173125 -5.27085938 17.66265625 -6 17.13671875 C-8.11655289 15.37225018 -9.60417412 13.78301789 -11.04296875 11.43359375 C-10.97469117 7.61004946 -10.55071792 5.22568245 -8.48046875 1.99609375 C-5.63455843 0.17179226 -3.37376033 -0.20655675 0 0 Z M-7.04296875 7.43359375 C-6.52035885 11.77391324 -4.1982857 13.45992534 -0.96484375 16.10546875 C1.53401858 17.83232483 4.01828745 18.71682697 6.95703125 19.43359375 C6.58794591 13.52822838 4.99053009 8.89522934 0.95703125 4.43359375 C-2.73359401 3.46700142 -4.95584675 4.18695953 -7.04296875 7.43359375 Z M19.36328125 7.62109375 C17.68220281 9.78781707 17.27493743 11.43855326 16.76953125 14.12109375 C16.53169922 15.33345703 16.53169922 15.33345703 16.2890625 16.5703125 C16.17949219 17.18519531 16.06992187 17.80007812 15.95703125 18.43359375 C17.23153572 17.83721042 18.50150002 17.23111959 19.76953125 16.62109375 C20.47722656 16.28464844 21.18492188 15.94820312 21.9140625 15.6015625 C23.99969096 14.40920512 25.44331023 13.29663501 26.95703125 11.43359375 C26.72945394 9.27060164 26.72945394 9.27060164 25.95703125 7.43359375 C22.49069889 6.24612311 22.49069889 6.24612311 19.36328125 7.62109375 Z M-17.04296875 26.43359375 C-17.04296875 29.73359375 -17.04296875 33.03359375 -17.04296875 36.43359375 C-9.78296875 36.43359375 -2.52296875 36.43359375 4.95703125 36.43359375 C4.95703125 33.13359375 4.95703125 29.83359375 4.95703125 26.43359375 C-2.30296875 26.43359375 -9.56296875 26.43359375 -17.04296875 26.43359375 Z M7.95703125 26.43359375 C7.95703125 41.94359375 7.95703125 57.45359375 7.95703125 73.43359375 C10.26703125 73.43359375 12.57703125 73.43359375 14.95703125 73.43359375 C14.95703125 57.92359375 14.95703125 42.41359375 14.95703125 26.43359375 C12.64703125 26.43359375 10.33703125 26.43359375 7.95703125 26.43359375 Z M18.95703125 26.43359375 C18.95703125 29.73359375 18.95703125 33.03359375 18.95703125 36.43359375 C25.88703125 36.43359375 32.81703125 36.43359375 39.95703125 36.43359375 C39.95703125 33.13359375 39.95703125 29.83359375 39.95703125 26.43359375 C33.02703125 26.43359375 26.09703125 26.43359375 18.95703125 26.43359375 Z M-14.04296875 40.43359375 C-14.04296875 51.32359375 -14.04296875 62.21359375 -14.04296875 73.43359375 C-7.77296875 73.43359375 -1.50296875 73.43359375 4.95703125 73.43359375 C4.95703125 62.54359375 4.95703125 51.65359375 4.95703125 40.43359375 C-1.31296875 40.43359375 -7.58296875 40.43359375 -14.04296875 40.43359375 Z M18.95703125 40.43359375 C18.95703125 51.32359375 18.95703125 62.21359375 18.95703125 73.43359375 C24.89703125 73.43359375 30.83703125 73.43359375 36.95703125 73.43359375 C36.95703125 62.54359375 36.95703125 51.65359375 36.95703125 40.43359375 C31.01703125 40.43359375 25.07703125 40.43359375 18.95703125 40.43359375 Z " fill="#82B2D2" transform="translate(27.04296875,-0.43359375)"/>
</svg>
